<svg xmlns="http://www.w3.org/2000/svg" width="220" height="55">
  <g font-family="SQ Market" font-size="48" font-weight="400" letter-spacing="0" word-spacing="0">
    <path d="M110.09599 19.0625c-2.15849.06202-4.2168.936493-5.90625 2.25-.60419.431488-1.3399 1.144543-1.73776 1.79042-.86536 1.186472-1.59946 2.454052-2.01373 3.870303-1.198386 3.956806-.98548 8.436984.93158 12.131.74648 1.313848 1.54604 2.453577 2.72616 3.427027.95717.596111 2.06939 1.381015 3.25559 1.689364 3.24364 1.029562 7.00209.500483 9.71316-1.595614.67831-.421332 1.29657-1.232078 1.84375-1.90625-.0396-.177078.51922-.903134.5625-.3375-.002 4.022378.002 8.081355 0 12.11875h3.65625V19.625h-3.65625V24c-.65477-.959262-1.23326-2.010929-2.15625-2.625-2.01811-1.619075-4.62218-2.515883-7.21875-2.3125zm1.28125 3.3125c1.67857-.0043 3.58299.46943 4.78125 1.53125.95531.774052 1.67021 1.591807 2.1863 2.728967 1.36709 2.938761 1.48858 6.433306.42104 9.485514-.47922 1.47611-1.40042 2.7232-2.60734 3.691769-1.77666 1.519691-4.34998 1.77378-6.59701 1.381996-1.48758-.25529-2.75007-1.10639-3.70555-2.238417-1.77914-1.953522-2.28665-4.780058-2.25407-7.368406.0896-2.2465.52114-4.603244 1.90038-6.431423.92865-1.148264 2.14317-2.140818 3.6311-2.492454.72272-.233519 1.48693-.310231 2.2439-.288796zM83.237735 9.65625c-2.78174.1113705-5.614077.840776-7.84375 2.5625-.457618.303837-.963531.852275-1.280144 1.328935-1.360275 1.718414-2.056025 3.951802-1.838984 6.145892.07786 1.596262.666997 3.148117 1.744128 4.337673.315373.475145.924123 1.014713 1.419243 1.326245 2.878957 2.237478 6.622826 2.653061 10.020507 3.670505 2.121658.645968 4.577872 1.0844 5.9665 2.972 1.176055 1.436089 1.14301 3.5945.5 5.28125-.550121 1.381693-1.750693 2.369375-3.03125 3.0625-2.681676 1.160125-5.787808 1.084742-8.562085.307852-2.090019-.639688-3.943929-1.881549-5.300734-3.603828-.34711-.565804-.655804-.930295-1.198817-.276504-.823204.576243-1.646409 1.152487-2.469614 1.72873.661152 1.038354 1.441905 2.035083 2.375 2.75 1.596164 1.220742 3.327212 2.300413 5.290505 2.806922 3.673489 1.094496 7.751131.980525 11.303245-.494422 1.433752-.748809 2.80311-1.505353 3.817267-2.761494 1.31181-1.550497 2.15467-3.725186 2.195209-5.844367.107395-2.034529-.549028-4.098092-1.887476-5.644139-.25523-.402119-.715894-.813284-1.158012-1.070259-.668804-.593858-1.42529-.966278-2.24497-1.409821-3.655482-1.828592-7.823855-2.223254-11.557767-3.82137-1.143657-.568309-2.288607-1.355618-2.883001-2.51105-.889025-1.972852-.196348-4.469865 1.544687-5.721221 1.520799-1.218698 3.60866-1.577227 5.536563-1.591279 3.347658-.03421 6.741958 1.425656 8.7625 4.125l3-2.25c-.877137-1.221327-1.973732-2.167346-3.173908-2.976294-2.649381-1.742513-5.875831-2.5931951-9.044842-2.429956zM129.298 35.5625c.004 2.147386.43984 4.378484 1.75 6.125.57292.931335 1.70304 1.671587 2.70734 2.21982 2.62423 1.214354 5.7747 1.028749 8.37323-.161622 1.18358-.640644 2.32029-1.437615 3.07568-2.464448.3463-.319486.73663-1.226589.9375-1.275v4.15h3.65625V19.625h-3.65625c-.0254 5.010103.0591 10.023066-.0625 15.03125-.29542 2.01655-1.21176 3.963938-2.875 5.1875-2.01592 1.536071-4.9373 1.909346-7.3125.96875-1.66356-.747642-2.61141-2.573252-2.73011-4.366474-.28622-3.136868-.0841-6.294089-.14489-9.439776V19.625H129.298v15.9375zM164.8125 19.0625c-3.17355.103044-6.3179 1.134927-8.90625 2.96875.53125.895833 1.0625 1.791667 1.59375 2.6875 2.15468-1.653606 4.92699-2.329831 7.60625-2.4375 1.95147-.02675 4.2495.346479 5.37165 2.077749.64077 1.17474.49454 2.860808-.6029 3.703501-.91925.882664-2.48036 1.245665-3.8125 1.5-2.52772.464433-5.17772.564166-7.54958 1.634164-1.06658.499211-2.056 1.233324-2.66917 2.178336-1.31074 1.624927-1.40264 3.880726-1.01399 5.850279.22239 1.111507.79201 2.081155 1.48274 2.962221.36259.539196 1.08171.899899 1.6875 1.34375 2.28574 1.305478 5.09101 1.411611 7.63153.920243 1.49716-.341031 2.87874-1.109047 3.95545-2.084366.56458-.365294.67406-.97698 1.16302-1.335877.46867.127384.10397.879876.21875 1.25v1.875H174.5c-.0262-6.364261.0605-12.73137-.0625-19.09375-.28569-1.745751-1.21399-3.550508-2.73865-4.400403-1.99605-1.308033-4.52731-1.733216-6.88635-1.599597zm6.03125 11.5625c-.10168 2.560717.41481 5.326811-.86491 7.678916-1.05307 1.909709-3.14328 3.03737-5.29724 3.204389-1.90951.15892-4.13658-.08093-5.4316-1.633305-.92097-1.125848-1.09764-2.835749-.65036-4.217848.34333-1.198994 1.41655-1.940749 2.55684-2.316326 2.69232-.924548 5.62489-.930756 8.28102-1.965826.52625-.292107 1.00999-.568143 1.40625-.96875v.21875zM191.35826 19.15625c-1.95125.152154-3.85988 1.04279-5.21302 2.319201-.59289.6535-1.14755 1.472376-1.66198 2.274549v-4.125h-3.65625v24.53125h3.65625c.0338-4.782359-.0765-9.570236.0766-14.348995.2836-2.314126 1.25109-4.669868 3.22012-6.025914 1.75618-1.321605 4.2721-1.422889 6.29699-.625091.43428-.2216.25944-.971576.49023-1.395812.15951-.607646.31901-1.215292.47852-1.822938-1.10515-.638928-2.42553-.856506-3.6875-.78125zM207.34151 19.0625c-2.13829.03665-4.19886.798237-5.96875 1.96875-.35579.27072-.77995.582572-1.16446.914461-.91491.88582-1.60571 1.976144-2.27304 3.116789-1.80811 3.567489-2.01259 7.8505-.87425 11.658487.49677 1.745241 1.55119 3.364559 2.67916 4.662806.46069.472688.96512.864025 1.41384 1.178707 1.86354 1.344907 4.12796 2.069795 6.42463 2.139981 3.05584.170154 6.25511-.551318 8.64005-2.543018.74955-.507245 1.36652-1.1098 1.96657-1.846963-.82292-.75-1.64583-1.5-2.46875-2.25-1.26864 1.628734-3.11631 2.757321-5.16028 3.114703-2.83059.54826-6.11624-.05355-8.07489-2.287374-1.64594-1.582786-2.18163-4.005813-2.23358-6.233579.34687-.564064 1.21658-.09075 1.7875-.25h17.11875c.41251-3.32279-.34852-6.849649-2.45625-9.49375-.50588-.78276-1.3236-1.349798-2.10625-1.9125-2.06552-1.470233-4.73394-2.09184-7.25-1.9375zm1.3125 3.125c2.44018.146241 4.80066 1.514769 5.93263 3.685788.53724 1.157077.85338 2.43898.87987 3.720462h-15.1875c.23744-1.79709.66584-3.730686 2-5.03125.23884-.411238.90344-.814517 1.29141-1.20469 1.48744-.969271 3.32773-1.293911 5.08359-1.17031z" style="text-align:start;line-height:110.00000237999999797%;-inkscape-font-specification:SQ Market"/>
  </g>
  <path d="M45.33346.90101419H9.8676247c-4.875869 0-8.86763036 3.99019941-8.86763036 8.86763041V45.23448c0 4.875088 3.99176136 8.864506 8.86763036 8.864506H45.33346c4.875869 0 8.867631-3.989418 8.867631-8.864506V9.7686446c0-4.877431-3.991762-8.86763041-8.867631-8.86763041M44.527454 41.609795c0 1.549532-1.269147 2.814774-2.820241 2.814774H13.491529c-1.550313 0-2.81946-1.265242-2.81946-2.814774V13.394892c0-1.550313 1.269147-2.81946 2.81946-2.81946h28.215684c1.551094 0 2.820241 1.269147 2.820241 2.81946v28.214903zm-9.670513-8.467751c0 .889575-.725561 1.612793-1.61045 1.612793H21.962404c-.887232 0-1.61045-.723218-1.61045-1.612793V21.858738c0-.886451.723218-1.611232 1.61045-1.611232h11.284087c.884889 0 1.61045.724781 1.61045 1.611232v11.283306z"/>
</svg>